<mxfile host="app.diagrams.net" modified="2023-03-30T15:59:17.473Z" agent="Mozilla/5.0 (Macintosh; Intel Mac OS X 10_15_7) AppleWebKit/537.36 (KHTML, like Gecko) Chrome/111.0.0.0 Safari/537.36" version="21.1.2" etag="mXwnk-lQD6_QB2H0wqPF" type="github">
  <diagram name="Page-1" id="WxVn4FK3oKeByT_McGPp">
    <mxGraphModel>
      <root>
        <mxCell id="0" />
        <mxCell id="1" parent="0" />
      </root>
    </mxGraphModel>
  </diagram>
</mxfile>
